<svg width="14" height="14" viewBox="0 0 14 14" fill="none" xmlns="http://www.w3.org/2000/svg">
<g clip-path="url(#clip0)">
<path d="M0.442948 8.19811L4.30742 4.33355C5.79214 2.8491 8.20794 2.8491 9.69285 4.33367L13.5571 8.19818C14.1476 8.78876 14.1476 9.74627 13.5571 10.3368C12.9665 10.9274 12.0089 10.9274 11.4184 10.3368L7.55422 6.47243C7.24873 6.16688 6.75146 6.16679 6.44602 6.47232L2.58162 10.3368C2.2863 10.632 1.89935 10.7797 1.51225 10.7797C1.12531 10.7797 0.738251 10.6321 0.442879 10.3368C-0.147635 9.74622 -0.147635 8.78869 0.442948 8.19811Z" fill="#C4C4C4"/>
</g>
<defs>
<clipPath id="clip0">
<rect width="14" height="14" fill="white" transform="matrix(-1 0 0 1 14 0)"/>
</clipPath>
</defs>
</svg>
